#!OML:ASF E:\Steps\Project 1\Capture day 1\Session 2\Subject.ASF
:FULLY-SPECIFIED
:DEGREES
80
root 16.7084 19.6638 20.8776 -154.15 -8.4625 176.779
lowerback -26.8493 -1.99619 -5.59526
upperback 0.952438 -1.08572 -0.0982319
thorax 15.5837 -1.02331 2.5267
lowerneck -4.50038 0.968872 -0.613175
upperneck 17.8858 -0.395892 4.88669
head 6.1575 -0.240749 1.58644
rclavicle 1.74309e-014 8.54774e-015
rhumerus -39.4669 -19.0126 -76.7678
rradius 35.2502
rwrist -4.59207
rhand -8.29786 -50.4876
rfingers 7.12502
rthumb 17.6222 -79.709
lclavicle 1.74309e-014 8.54774e-015
lhumerus -30.1042 1.75488 82.0573
lradius 27.2408
lwrist -1.8255
lhand -20.9895 -11.3677
lfingers 7.12502
lthumb 5.38452 18.5439
rfemur -26.2816 6.45905 20.2159
rtibia 15.1275
rfoot -22.8919 -9.29593
rtoes -21.1429
lfemur -28.3546 -10.3513 -21.8963
ltibia 16.5109
lfoot -7.35427 -8.05844
ltoes -9.26792
81
root 16.7117 19.6598 20.8828 -154.254 -8.67045 176.752
lowerback -26.6442 -1.93403 -5.52878
upperback 0.978936 -1.03196 -0.0786315
thorax 15.5094 -0.990851 2.53728
lowerneck -4.33253 1.11084 -0.610396
upperneck 17.9521 -0.206726 4.84248
head 6.14338 -0.157975 1.58382
rclavicle -1.14425e-014 2.98177e-016
rhumerus -39.5277 -19.062 -76.6099
rradius 35.2314
rwrist -4.50211
rhand -8.22718 -49.8422
rfingers 7.12502
rthumb 17.6902 -79.0574
lclavicle -1.14425e-014 2.98177e-016
lhumerus -30.215 1.60165 82.1496
lradius 27.366
lwrist -1.93979
lhand -21.0476 -11.3814
lfingers 7.12502
lthumb 5.32842 18.5316
rfemur -26.4419 6.49991 20.2407
rtibia 15.7256
rfoot -22.9975 -9.55444
rtoes -20.5179
lfemur -28.6819 -10.4711 -21.8983
ltibia 17.3233
lfoot -7.95362 -8.08278
ltoes -14.2612
82
root 16.716 19.6541 20.8896 -154.342 -8.91545 176.693
lowerback -26.4197 -1.91239 -5.49098
upperback 1.06328 -1.0193 -0.0373668
thorax 15.498 -0.979906 2.57203
lowerneck -4.48944 1.20732 -0.586416
upperneck 17.7821 -0.0216105 4.78022
head 6.11179 -0.0568312 1.57272
rclavicle 1.27999e-014 1.0871e-015
rhumerus -39.3891 -19.0622 -76.5208
rradius 35.2132
rwrist -4.37493
rhand -8.21476 -49.8623
rfingers 7.12502
rthumb 17.7022 -79.0765
lclavicle 1.27999e-014 1.0871e-015
lhumerus -30.1558 1.45564 82.2809
lradius 27.4422
lwrist -2.07048
lhand -21.1906 -11.2595
lfingers 7.12502
lthumb 5.19036 18.6569
rfemur -26.5438 6.66225 20.1948
rtibia 16.1649
rfoot -24.2933 -9.76675
rtoes -18.0522
lfemur -28.9769 -10.585 -21.9323
ltibia 18.0292
lfoot -8.33292 -8.19636
ltoes -17.644
83
root 16.7196 19.6475 20.8987 -154.371 -9.14528 176.577
lowerback -26.2457 -1.89913 -5.4661
upperback 1.10627 -1.01125 -0.0387762
thorax 15.4615 -0.97126 2.56378
lowerneck -4.88062 0.884074 -0.204148
upperneck 18.0566 -0.445529 4.32356
head 6.28084 -0.261982 1.33855
rclavicle 1.37783e-014 -6.65929e-015
rhumerus -39.3346 -19.053 -76.4938
rradius 35.2382
rwrist -4.26414
rhand -8.33916 -50.5204
rfingers 7.12502
rthumb 17.5825 -79.7454
lclavicle 1.37783e-014 -6.65929e-015
lhumerus -30.1707 1.35278 82.3336
lradius 27.5523
lwrist -1.95111
lhand -21.3952 -11.3413
lfingers 7.12502
lthumb 4.99279 18.5799
rfemur -26.7608 6.77152 20.0808
rtibia 16.7002
rfoot -24.1088 -10.0441
rtoes -18.3681
lfemur -29.3999 -10.7357 -22.0151
ltibia 18.8744
lfoot -8.10509 -8.4099
ltoes -13.8171
84
root 16.7215 19.6422 20.9065 -154.421 -9.37982 176.455
lowerback -26.1086 -1.89727 -5.42004
upperback 0.829834 -1.01941 -0.106735
thorax 15.8144 -0.982715 2.57684
lowerneck -4.47958 1.1683 -0.6187
upperneck 17.8734 -0.076485 4.75328
head 6.14039 -0.0881346 1.56656
rclavicle 1.87852e-014 3.72721e-015
rhumerus -39.3302 -18.9255 -76.4749
rradius 35.2383
rwrist -4.38352
rhand -8.50675 -49.8022
rfingers 7.12502
rthumb 17.4212 -79.0415
lclavicle 1.87852e-014 3.72721e-015
lhumerus -30.1746 1.25724 82.373
lradius 27.6466
lwrist -1.58272
lhand -21.6351 -11.6144
lfingers 7.12502
lthumb 4.76113 18.3121
rfemur -26.9908 6.66286 20.0201
rtibia 17.3539
rfoot -23.9337 -10.2684
rtoes -19.0594
lfemur -29.8386 -10.9247 -22.1072
ltibia 19.8589
lfoot -8.06482 -8.61687
ltoes -10.4202
85
root 16.7242 19.6374 20.9121 -154.541 -9.72122 176.374
lowerback -25.8546 -1.89377 -5.31148
upperback 0.922595 -1.04818 -0.109525
thorax 15.7828 -0.981788 2.503
lowerneck -4.56976 1.21347 -0.585129
upperneck 17.9056 -0.0218131 4.78909
head 6.16482 -0.0533814 1.57673
rclavicle 2.95319e-014 6.11263e-015
rhumerus -39.3934 -18.6896 -76.5271
rradius 35.4884
rwrist -4.73634
rhand -8.60725 -50.8228
rfingers 7.12502
rthumb 17.3245 -80.0706
lclavicle 2.95319e-014 6.11263e-015
lhumerus -30.1732 1.04123 82.3945
lradius 27.8388
lwrist -1.47673
lhand -21.7103 -11.3822
lfingers 7.12502
lthumb 4.68848 18.5459
rfemur -26.9699 6.48973 20.0512
rtibia 17.6786
rfoot -24.1579 -10.4753
rtoes -18.9868
lfemur -30.1282 -11.0878 -22.1469
ltibia 20.6933
lfoot -8.28418 -8.81362
ltoes -10.7827
